<svg width="98" height="98" viewBox="0 0 98 98" fill="none" xmlns="http://www.w3.org/2000/svg">
<rect width="98" height="98" rx="19.6" fill="black"/>
<g clip-path="url(#clip0_244_27)">
<path d="M45.9375 67.375C45.9375 67.375 42.875 67.375 42.875 64.3125C42.875 61.25 45.9375 52.0625 58.1875 52.0625C70.4375 52.0625 73.5 61.25 73.5 64.3125C73.5 67.375 70.4375 67.375 70.4375 67.375H45.9375ZM58.1875 49C60.6242 49 62.9611 48.032 64.684 46.309C66.407 44.5861 67.375 42.2492 67.375 39.8125C67.375 37.3758 66.407 35.0389 64.684 33.316C62.9611 31.593 60.6242 30.625 58.1875 30.625C55.7508 30.625 53.4139 31.593 51.691 33.316C49.968 35.0389 49 37.3758 49 39.8125C49 42.2492 49.968 44.5861 51.691 46.309C53.4139 48.032 55.7508 49 58.1875 49ZM40.474 67.375C40.02 66.4189 39.7936 65.3707 39.8125 64.3125C39.8125 60.1628 41.895 55.8906 45.7415 52.92C43.8216 52.3284 41.8213 52.0391 39.8125 52.0625C27.5625 52.0625 24.5 61.25 24.5 64.3125C24.5 67.375 27.5625 67.375 27.5625 67.375H40.474ZM38.2812 49C40.3118 49 42.2592 48.1934 43.695 46.7575C45.1309 45.3217 45.9375 43.3743 45.9375 41.3438C45.9375 39.3132 45.1309 37.3658 43.695 35.93C42.2592 34.4941 40.3118 33.6875 38.2812 33.6875C36.2507 33.6875 34.3033 34.4941 32.8675 35.93C31.4316 37.3658 30.625 39.3132 30.625 41.3438C30.625 43.3743 31.4316 45.3217 32.8675 46.7575C34.3033 48.1934 36.2507 49 38.2812 49Z" fill="#0EFCF0"/>
</g>
<defs>
<clipPath id="clip0_244_27">
<rect width="49" height="49" fill="white" transform="translate(24.5 24.5)"/>
</clipPath>
</defs>
</svg>
