<svg width="98" height="98" viewBox="0 0 98 98" fill="none" xmlns="http://www.w3.org/2000/svg">
<rect width="98" height="98" rx="19.6" fill="black"/>
<path d="M44.9595 26.5846H57.2095V30.6679H44.9595V26.5846ZM65.415 39.6288L68.3427 36.7011L65.4558 33.8141L62.5301 36.7398C59.3245 34.171 55.3498 32.752 51.2421 32.7098C47.1345 32.6676 43.1314 34.0047 39.8737 36.5071L42.7729 39.4471C45.1951 37.7267 48.0911 36.7994 51.0621 36.7929L51.0825 36.795V51.0458L61.1949 61.1684C59.1985 63.1741 56.6517 64.5421 53.8772 65.099C51.1026 65.6559 48.2252 65.3768 45.6095 64.2968C42.9937 63.2169 40.7574 61.3848 39.1839 59.0328C37.6103 56.6807 36.7704 53.9145 36.7704 51.0846H42.8954L34.7287 42.9179L26.5621 51.0846H32.6871C32.6843 54.0208 33.3852 56.915 34.7311 59.5246C36.077 62.1342 38.0287 64.3833 40.4227 66.0834C42.8166 67.7836 45.5832 68.8852 48.4905 69.2962C51.3979 69.7071 54.3614 69.4153 57.1327 68.4452C59.9041 67.4752 62.4027 65.8551 64.4191 63.7207C66.4355 61.5863 67.911 58.9997 68.7221 56.1777C69.5332 53.3557 69.6562 50.3805 69.0808 47.5012C68.5054 44.6218 67.2484 41.9223 65.415 39.6288Z" fill="#0EFCF0"/>
</svg>
