<svg width="98" height="98" viewBox="0 0 98 98" fill="none" xmlns="http://www.w3.org/2000/svg">
<rect width="98" height="98" rx="19.6" fill="black"/>
<path d="M32.6666 67.375C31.5437 67.375 30.5828 66.9756 29.7838 66.1766C28.9835 65.3763 28.5833 64.4146 28.5833 63.2917V40.8334C28.5833 39.7105 28.9835 38.7495 29.7838 37.9505C30.5828 37.1502 31.5437 36.75 32.6666 36.75H40.8333V32.6667C40.8333 31.5438 41.2335 30.5822 42.0338 29.7818C42.8328 28.9829 43.7937 28.5834 44.9166 28.5834H53.0833C54.2062 28.5834 55.1679 28.9829 55.9682 29.7818C56.7672 30.5822 57.1666 31.5438 57.1666 32.6667V36.75H65.3333C66.4562 36.75 67.4179 37.1502 68.2182 37.9505C69.0172 38.7495 69.4166 39.7105 69.4166 40.8334V63.2917C69.4166 64.4146 69.0172 65.3763 68.2182 66.1766C67.4179 66.9756 66.4562 67.375 65.3333 67.375H32.6666ZM44.9166 36.75H53.0833V32.6667H44.9166V36.75Z" fill="#0EFCF0"/>
</svg>
